<svg xmlns="http://www.w3.org/2000/svg" viewBox="0 0 48 48"><defs><style>.cls-1{fill:#424242;}.cls-2{fill:#42a5f5;}</style></defs><title>Editing Script</title><g id="Editing_Script" data-name="Editing Script"><path class="cls-1" d="M9,4V6H5A1,1,0,0,0,4,7V38H2V7A3,3,0,0,1,5,4Z"/><path class="cls-1" d="M46,7V38H44V7a1,1,0,0,0-1-1H39a3,3,0,0,0-.66-1.87C38.2,3.94,37.52,4,43,4A3,3,0,0,1,46,7Z"/><path class="cls-1" d="M19,41V40H29v1a1,1,0,0,1-1,1H20A1,1,0,0,1,19,41Z"/><path class="cls-2" d="M48,40v5a3,3,0,0,1-3,3H3a3,3,0,0,1-3-3V40H17v1a3,3,0,0,0,3,3h8a3,3,0,0,0,3-3V40Z"/><path class="cls-1" d="M42,9V37a1,1,0,0,1-1,1H7a1,1,0,0,1-1-1V9A1,1,0,0,1,7,8H9v2H8V36H40V10H39V8h2A1,1,0,0,1,42,9Z"/><polygon class="cls-2" points="20.7 26.19 22.81 28.3 19.64 29.36 20.7 26.19"/><rect class="cls-2" x="22" y="21" width="8" height="4" transform="translate(-8.65 25.15) rotate(-45.05)"/><path class="cls-2" d="M32.36,19.46l-.7.71-2.83-2.83.71-.7a2,2,0,0,1,2.82,2.82Z"/><path class="cls-1" d="M28,7H16a1,1,0,0,1,0-2H28A1,1,0,0,1,28,7Z"/><path class="cls-1" d="M28,11H16a1,1,0,0,1,0-2H28A1,1,0,0,1,28,11Z"/><path class="cls-1" d="M24,15H16a1,1,0,0,1,0-2h8A1,1,0,0,1,24,15Z"/><path class="cls-2" d="M32,0H12a1,1,0,0,0-1,1V33a1,1,0,0,0,1,1H36a1,1,0,0,0,1-1c0-29.29.11-27.21-.22-27.62C32.46,0,32.65,0,32,0Zm3,32H13V2H31V6a1,1,0,0,0,1,1h3Z"/></g></svg>